<svg width="368" height="368" viewBox="0 0 368 368" fill="none" xmlns="http://www.w3.org/2000/svg">
<g clip-path="url(#clip0_5877_7965)">
<path d="M120.5 120.4V57.6C120.5 52.2981 116.202 48 110.9 48H57.6C52.2981 48 48 52.2981 48 57.6V310.4C48 315.702 52.2981 320 57.6 320H310.4C315.702 320 320 315.702 320 310.4V139.6C320 134.298 315.702 130 310.4 130H130.1C124.798 130 120.5 125.702 120.5 120.4Z" stroke="#6BA0FA" stroke-dasharray="2.4 4.8"/>
<rect width="96" height="96" rx="24" fill="#074DC5"/>
<rect x="9.59961" y="9.59998" width="76.8" height="76.8" rx="16" fill="#053994"/>
<path fill-rule="evenodd" clip-rule="evenodd" d="M64.0008 29.8667L60.8008 26.6667L57.6008 29.8667L54.4008 26.6667L51.2008 29.8667L48.0008 26.6667L44.8008 29.8667L41.6008 26.6667L38.4008 29.8667L35.2008 26.6667L32.0008 29.8667L28.8008 26.6667V69.3334L32.0008 66.1334L35.2008 69.3334L38.4008 66.1334L41.6008 69.3334L44.8008 66.1334L48.0008 69.3334L51.2008 66.1334L54.4008 69.3334L57.6008 66.1334L60.8008 69.3334L64.0008 66.1334L67.2008 69.3334V26.6667L64.0008 29.8667ZM33.0674 63.1254V32.8747H62.9341V63.1254H33.0674ZM60.8008 58.6667V54.4H35.2008V58.6667H60.8008ZM60.8008 45.8667V50.1334H35.2008V45.8667H60.8008ZM60.8008 41.6V37.3334H35.2008V41.6H60.8008Z" fill="#0960F6"/>
<rect y="156" width="96" height="96" rx="24" fill="#074DC5"/>
<rect x="9.59961" y="165.6" width="76.8" height="76.8" rx="16" fill="#053994"/>
<path fill-rule="evenodd" clip-rule="evenodd" d="M64.001 184.8H32.001C29.6544 184.8 27.7344 186.72 27.7344 189.067V218.933C27.7344 221.28 29.6544 223.2 32.001 223.2H64.001C66.3477 223.2 68.2677 221.28 68.2677 218.933V189.067C68.2677 186.72 66.3477 184.8 64.001 184.8ZM64.001 189.067V195.467H32.001V189.067H64.001ZM42.6677 218.933H53.3344V199.733H42.6677V218.933ZM32.001 199.733H38.401V218.933H32.001V199.733ZM57.601 199.733V218.933H64.001V199.733H57.601Z" fill="#0960F6"/>
<rect x="272" y="198" width="96" height="96" rx="24" fill="#074DC5"/>
<rect x="281.6" y="207.6" width="76.8" height="76.8" rx="16" fill="#053994"/>
<path fill-rule="evenodd" clip-rule="evenodd" d="M337.068 228.933H302.935C300.567 228.933 298.689 230.832 298.689 233.2L298.668 258.8C298.668 261.168 300.567 263.067 302.935 263.067H337.068C339.436 263.067 341.335 261.168 341.335 258.8V233.2C341.335 230.832 339.436 228.933 337.068 228.933ZM337.068 258.8H302.935V246H337.068V258.8ZM302.935 237.467H337.068V233.2H302.935V237.467Z" fill="#0960F6"/>
<rect x="123" y="272" width="96" height="96" rx="24" fill="#074DC5"/>
<rect x="132.6" y="281.6" width="76.8" height="76.8" rx="16" fill="#053994"/>
<path d="M165.667 308.267V314.667H159.267V308.267H165.667ZM168.867 305.067H156.067V317.867H168.867V305.067ZM165.667 325.333V331.733H159.267V325.333H165.667ZM168.867 322.133H156.067V334.933H168.867V322.133ZM182.734 308.267V314.667H176.334V308.267H182.734ZM185.934 305.067H173.134V317.867H185.934V305.067ZM173.134 322.133H176.334V325.333H173.134V322.133ZM176.334 325.333H179.534V328.533H176.334V325.333ZM179.534 322.133H182.734V325.333H179.534V322.133ZM173.134 328.533H176.334V331.733H173.134V328.533ZM176.334 331.733H179.534V334.933H176.334V331.733ZM179.534 328.533H182.734V331.733H179.534V328.533ZM182.734 325.333H185.934V328.533H182.734V325.333ZM182.734 331.733H185.934V334.933H182.734V331.733ZM192.334 309.333H188.067V302.933H181.667V298.667H192.334V309.333ZM192.334 341.333V330.667H188.067V337.067H181.667V341.333H192.334ZM149.667 341.333H160.334V337.067H153.934V330.667H149.667V341.333ZM149.667 298.667V309.333H153.934V302.933H160.334V298.667H149.667Z" fill="#0960F6"/>
<rect x="149" y="82" width="96" height="96" rx="24" fill="#074DC5"/>
<rect x="158.6" y="91.6" width="76.8" height="76.8" rx="16" fill="#053994"/>
<g clip-path="url(#clip1_5877_7965)">
<path d="M218.334 127.867V110.8H203.4V117.2H190.6V110.8H175.667V127.867H190.6V121.467H194.867V142.8H203.4V149.2H218.334V132.133H203.4V138.533H199.134V121.467H203.4V127.867H218.334ZM186.334 123.6H179.934V115.067H186.334V123.6ZM207.667 136.4H214.067V144.933H207.667V136.4ZM207.667 115.067H214.067V123.6H207.667V115.067Z" fill="#0960F6"/>
</g>
</g>
<defs>
<clipPath id="clip0_5877_7965">
<rect width="368" height="368" fill="white" transform="matrix(-1 0 0 1 368 0)"/>
</clipPath>
<clipPath id="clip1_5877_7965">
<rect width="51.2" height="51.2" fill="white" transform="translate(171.4 104.4)"/>
</clipPath>
</defs>
</svg>
