<svg xmlns="http://www.w3.org/2000/svg" width="49" height="48" fill="none" viewBox="0 0 49 48">  <g clip-path="url(#a)">    <path stroke="#074DC5" stroke-linecap="round" stroke-linejoin="round" stroke-width=".781" d="m27.606 13.755-4.048 5.57"></path>    <path stroke="#074DC5" stroke-width=".781" d="M28.537 32.468a12.8 12.8 0 0 0 6.162-10.95c0-7.073-5.734-12.807-12.807-12.807-6.387 0-11.682 4.676-12.649 10.79"></path>    <path stroke="#074DC5" stroke-linecap="round" stroke-linejoin="round" stroke-width=".781" d="m20.27 19.325-3.994-5.495M31.98 24.86l-7.405-2.406m11.909 19.629H7.26m16.566-15.055h0H7.26"></path>    <path fill="#FF490C" d="M22.017 24.646a3.106 3.106 0 1 0 0-6.212 3.106 3.106 0 0 0 0 6.212Z"></path>    <path fill="#FF490C" fill-rule="evenodd" d="M22.085 18.435h-.068a3.106 3.106 0 1 0 1.16 5.987 3.106 3.106 0 0 1-1.092-5.987Z" clip-rule="evenodd" opacity=".5" style="mix-blend-mode:multiply"></path>    <path stroke="#074DC5" stroke-linecap="round" stroke-linejoin="round" stroke-width=".781" d="M7.262 34.556h23.023M7.262 19.501v22.581m6.309-22.581v22.581m6.314.001V21.947m6.305 20.136V29.58m6.309 12.503v-4.84M4.605 19.501h9.756c1.063 0 2.113.232 3.078.677a7.984 7.984 0 0 1 2.656 2.002l.119.14 1.698 2.07 4.275 5.192 2.456 2.985 1.638 1.988 2.218 2.688 3.985 4.84"></path>    <path fill="#074DC5" d="M15.384 14.18H13.88a1.547 1.547 0 0 1-1.543-1.44l-.176-2.506a2.05 2.05 0 0 1 2.048-2.195h.846a2.052 2.052 0 0 1 2.047 2.195l-.175 2.506a1.547 1.547 0 0 1-1.544 1.44Zm14.882 0h-1.505a1.548 1.548 0 0 1-1.544-1.44l-.175-2.506a2.049 2.049 0 0 1 2.046-2.195h.843a2.053 2.053 0 0 1 2.047 2.195l-.175 2.506a1.55 1.55 0 0 1-1.537 1.44Zm5.014 14.532h-1.503a1.548 1.548 0 0 1-1.544-1.441l-.175-2.506a2.047 2.047 0 0 1 1.229-2.025c.258-.112.537-.17.818-.17h.85a2.053 2.053 0 0 1 2.047 2.195l-.175 2.506a1.548 1.548 0 0 1-1.548 1.44Z"></path>    <path fill="#074DC5" d="M15.136 14.18h-1.263a1.549 1.549 0 0 1-1.544-1.44l-.176-2.506a2.05 2.05 0 0 1 2.048-2.195h.846c.069 0 .137.004.205.012a2.05 2.05 0 0 0-1.835 2.183l.174 2.506a1.55 1.55 0 0 0 1.545 1.44Zm14.879 0h-1.262a1.547 1.547 0 0 1-1.544-1.44l-.18-2.506a2.05 2.05 0 0 1 2.047-2.195h.855c.069 0 .137.004.206.012a2.05 2.05 0 0 0-1.837 2.183l.176 2.506a1.549 1.549 0 0 0 1.539 1.44Zm5.017 14.532h-1.264a1.55 1.55 0 0 1-1.544-1.441l-.172-2.506a2.049 2.049 0 0 1 1.23-2.025c.257-.112.536-.17.817-.17h.847c.068 0 .137.003.205.011a2.05 2.05 0 0 0-1.835 2.184l.174 2.506a1.55 1.55 0 0 0 1.541 1.44Z" opacity=".5" style="mix-blend-mode:multiply"></path>    <path stroke="#032663" stroke-linecap="round" stroke-linejoin="round" stroke-width=".781" d="M40.016 27.733c0 4.36-3.428 4.843-3.428 9.202 0 4.36 3.428 4.36 3.428 8.718"></path>    <path fill="#FF490C" d="M33.481 17.561c0 4.041 5.135 9.289 6.3 10.43a.335.335 0 0 0 .47 0c1.166-1.145 6.3-6.391 6.3-10.43 0-4.559-2.926-7.912-6.535-7.912-3.61 0-6.535 3.356-6.535 7.912Z"></path>    <path fill="#FF490C" d="M35.427 17.561c0 3.45 3.74 7.78 5.562 9.682a31.55 31.55 0 0 1-.74.749.334.334 0 0 1-.467 0c-1.167-1.146-6.3-6.392-6.3-10.43 0-4.557 2.924-7.913 6.534-7.913.326 0 .652.028.973.084-3.147.54-5.562 3.687-5.562 7.828Z" opacity=".5" style="mix-blend-mode:multiply"></path>  </g>  <defs>    <clipPath id="a">      <path fill="#fff" d="M.5 0h48v48H.5z"></path>    </clipPath>  </defs></svg>


