<svg xmlns="http://www.w3.org/2000/svg" width="49" height="48" fill="none" viewBox="0 0 49 48">  <g clip-path="url(#a)">    <path fill="#074DC5" d="M27.07 12.8v28.035c0 .762-.786 1.271-1.482.959l-1.271-.572a3.028 3.028 0 0 1-1.786-2.762V6.474c0-.185.15-.334.335-.334h3.87c.185 0 .335.15.335.334V12.8Z"></path>    <path fill="#074DC5" d="M26.922 41.374c-.26.435-.822.65-1.335.42l-1.271-.572a3.028 3.028 0 0 1-1.786-2.762V6.474c0-.185.15-.334.335-.334h1.934v32.32a3.03 3.03 0 0 0 1.786 2.762l.337.152Z" opacity=".5" style="mix-blend-mode:multiply"></path>    <path fill="#FF490C" d="M34.758 11.803c-5.607-.581-7.246.562-7.604.905a.331.331 0 0 1-.23.092h-4.367c-.016 0-.033 0-.048.004-3.269.435-5.193 2.733-5.75 3.498a.334.334 0 0 1-.445.087c-3.133-1.918-3.046-5.587-2.947-6.663a.335.335 0 0 1 .334-.304H27.07s4.793-.013 7.887 1.758c.315.18.16.662-.2.623Z"></path>    <path fill="#FF490C" d="M18.164 14.794a9.149 9.149 0 0 0-1.405 1.506.335.335 0 0 1-.447.09c-3.131-1.919-3.044-5.588-2.945-6.664a.335.335 0 0 1 .334-.304h1.986c.037 1.426.53 3.83 2.477 5.372Z" opacity=".5" style="mix-blend-mode:multiply"></path>  </g>  <defs>    <clipPath id="a">      <path fill="#fff" d="M.5 0h48v48H.5z"></path>    </clipPath>  </defs></svg>


