<svg xmlns="http://www.w3.org/2000/svg" width="48" height="48" fill="none" viewBox="0 0 48 48">  <g clip-path="url(#a)">    <path fill="#9DBFFB" d="m36.8 32.971-.813 3.252a1.295 1.295 0 0 1-1.256.98h-5.476a1.295 1.295 0 0 1-1.255-.98l-.812-3.252a20.574 20.574 0 0 1-.59-3.942 20.065 20.065 0 0 1 1.638-8.924c.379-.88.803-1.934.916-2.463.606-2.843-.08-7.249-.266-9.794-.12-1.613.981-3.098 2.575-3.369 1.93-.327 3.776 1.182 3.653 3.08-.159 2.516-.905 7.153-.281 10.083.111.53.538 1.582.915 2.463a20.051 20.051 0 0 1 1.637 8.924 20.67 20.67 0 0 1-.584 3.942Z"></path>    <path fill="#9DBFFB" d="m29.806 36.223-.814-3.252a20.672 20.672 0 0 1-.588-3.942 20.05 20.05 0 0 1 1.637-8.924c.378-.881.802-1.935.916-2.463.606-2.844-.08-7.25-.266-9.794-.112-1.486.815-2.862 2.208-3.282a3.201 3.201 0 0 0-1.438-.087c-1.594.271-2.694 1.755-2.576 3.369.186 2.544.872 6.95.266 9.794-.112.528-.537 1.582-.916 2.463a20.067 20.067 0 0 0-1.637 8.924c.069 1.33.266 2.65.59 3.942l.813 3.252a1.294 1.294 0 0 0 1.256.98h1.805a1.295 1.295 0 0 1-1.256-.98Z" opacity=".5" style="mix-blend-mode:multiply"></path>    <path fill="#9DBFFB" d="m21.16 32.971-.812 3.252a1.295 1.295 0 0 1-1.256.98h-5.47a1.295 1.295 0 0 1-1.256-.98l-.813-3.252a20.654 20.654 0 0 1-.589-3.942 20.05 20.05 0 0 1 1.638-8.924c.377-.88.802-1.934.915-2.463.606-2.843-.08-7.249-.266-9.794-.118-1.613.98-3.098 2.577-3.369 1.929-.327 3.775 1.182 3.656 3.08-.159 2.516-.907 7.153-.282 10.083.112.53.537 1.582.916 2.463a20.068 20.068 0 0 1 1.637 8.924c-.07 1.33-.27 2.65-.595 3.942Z"></path>    <path stroke="#FF490C" stroke-linecap="round" stroke-linejoin="round" stroke-width=".781" d="M13.72 13.371h5.27m-5.293 2.979h5.317m10.344-2.979h5.27m-5.293 2.979h5.317"></path>    <path fill="#074DC5" d="M24.174 43.489a7.768 7.768 0 1 0 0-15.537 7.768 7.768 0 0 0 0 15.537Z"></path>    <path fill="#9DBFFB" d="m14.168 36.223-.814-3.252a20.678 20.678 0 0 1-.588-3.942 20.051 20.051 0 0 1 1.637-8.924c.378-.881.802-1.935.915-2.463.607-2.844-.079-7.25-.265-9.794-.112-1.486.815-2.862 2.208-3.282a3.203 3.203 0 0 0-1.438-.087c-1.596.271-2.694 1.755-2.576 3.369.186 2.544.872 6.95.266 9.794-.112.528-.538 1.582-.916 2.463a20.05 20.05 0 0 0-1.637 8.924c.068 1.33.265 2.65.588 3.942l.814 3.252a1.294 1.294 0 0 0 1.256.98h1.806a1.294 1.294 0 0 1-1.256-.98Z" opacity=".5" style="mix-blend-mode:multiply"></path>    <path fill="#074DC5" d="M18.212 35.72a7.768 7.768 0 0 1 6.865-7.714 7.768 7.768 0 1 0 0 15.429 7.768 7.768 0 0 1-6.865-7.715Z" opacity=".5" style="mix-blend-mode:multiply"></path>    <path stroke="#032663" stroke-linecap="round" stroke-miterlimit="10" stroke-width="2.009" d="M25.902 32.424h0m2.434 2.722h0m-4.476 1.556h.002"></path>  </g>  <defs>    <clipPath id="a">      <path fill="#fff" d="M0 0h48v48H0z"></path>    </clipPath>  </defs></svg>


