<svg xmlns="http://www.w3.org/2000/svg" width="48" height="48" fill="none" viewBox="0 0 48 48">  <g clip-path="url(#a)">    <path fill="#074DC5" d="m25.723 28.174-2.278-.757 1.102 1.382 1.797 2.254c.291.278.499.631.6 1.021l1.406 7.657s3.112.806 2.497 2.43c-.844.172-4.738.97-5.705 1.17a.224.224 0 0 1-.263-.175l-1.975-9.565-2.263-2.716-3.628-4.353 4.361-1.7 3.809-1.486 5.771 2.06 1.005.358c.41.076.79.27 1.091.558l5.232 5.764s3.07-.956 3.403.747l-4.23 4.002a.223.223 0 0 1-.316-.009l-6.714-7.078-4.702-1.564Z"></path>    <path fill="#9DBFFB" d="m31.5 19.983-3.16 1.066s-1.06.383-1.82-.293l-4.018-4.754 2.834 7.273-.15.059-3.81 1.485-4.36 1.704-2.847-7.286.315 8.954c.112 2.757-2.214 3.115-2.961 3.16a.224.224 0 0 1-.236-.215L10.88 20.44c-.094-2.968.455-4.548 2.308-5.531a33.054 33.054 0 0 1 7.09-2.767c2.03-.53 3.482.262 5.044 2.1l2.98 3.414 4.814-1.59a.226.226 0 0 1 .24.065.249.249 0 0 1 .043.076c.223.691.708 2.896-1.898 3.777Z"></path>    <path fill="#F9D3BD" d="m17.698 10.558-2.15.84a2.474 2.474 0 0 1-3.196-1.402l-.73-1.872a2.48 2.48 0 0 1 .76-2.822c.194-.155.411-.28.642-.37l.54-.21a2.474 2.474 0 0 1 3.201 1.399l1.357 3.482a.737.737 0 0 1-.424.955Z"></path>    <path fill="#032663" d="M16.293 5.068a2.686 2.686 0 0 0-2.94-.506l-.342.14c-1.31.47-2.05 1.926-1.66 3.242.04.137.09.27.147.401a.167.167 0 0 0 .32-.086.929.929 0 0 1 .235-.753c.271-.294.732-.441 1.34-.423.607.018.94-.433 1.245-.83.32-.416.539-.67.883-.611.732.111.975.408 1.136.602l.035.043a.168.168 0 0 0 .191.047l.024-.013a.168.168 0 0 0 .069-.205 2.842 2.842 0 0 0-.683-1.048Z"></path>    <path fill="#FF490C" d="m37.458 36.824 4.23-4.002c-.336-1.704-3.403-.747-3.403-.747l-2.987 2.79 1.844 1.945a.224.224 0 0 0 .316.014Zm-12.577 6.335a.223.223 0 0 0 .263.174c.968-.199 4.861-.998 5.705-1.17.615-1.624-2.497-2.43-2.497-2.43l-4.005.836.534 2.59Z"></path>    <path fill="#032663" d="M31.5 0h.75v48h-.75z"></path>    <path fill="#FF490C" d="M10.487 8.172a3.985 3.985 0 1 1 7.395-2.974l.057.142a1.38 1.38 0 0 1-.765 1.794L12.339 9.08a1.38 1.38 0 0 1-1.795-.765l-.057-.142Z"></path>    <path fill="#074DC5" d="m15.75 7.791.691-.291 1.442 3.42-.691.292z"></path>  </g>  <defs>    <clipPath id="a">      <path fill="#fff" d="M0 0h48v48H0z"></path>    </clipPath>  </defs></svg>


