<svg width="48" height="48" viewBox="0 0 65 65" fill="none" xmlns="http://www.w3.org/2000/svg"><mask id="mask0_4426_2614" style="mask-type:luminance" maskUnits="userSpaceOnUse" x="2" y="2" width="61" height="61"><path d="M2.15002 2.15002H62.15V62.15H2.15002V2.15002Z" fill="white"></path></mask><g mask="url(#mask0_4426_2614)"><mask id="mask1_4426_2614" style="mask-type:luminance" maskUnits="userSpaceOnUse" x="2" y="2" width="61" height="61"><path d="M2.15002 2.15002H62.15V62.15H2.15002V2.15002Z" fill="white"></path></mask><g mask="url(#mask1_4426_2614)"><path d="M15.7412 38.1113L15.7426 47.345L15.7607 54.7607C15.7607 54.7607 18.1966 57.1473 19.4291 57.1473C20.5905 55.3137 21.0631 54.591 21.0631 54.591L21.2164 47.1505L21.5117 32.8212" fill="#9DBFFB"></path><path d="M16.0881 38.1363L16.0699 47.37L16.1017 54.7857C16.1017 54.7857 14.0862 57.3566 12.8537 57.3566C11.6924 55.523 10.8361 54.591 10.8361 54.591L10.6855 47.2863L10.3875 32.8212" fill="#9DBFFB"></path><path d="M16.2431 29.8826C17.5687 29.8826 21.5454 29.5687 21.5454 32.778C21.5454 35.9873 17.9873 38.2198 15.9291 38.2198C13.871 38.2198 10.4524 35.7431 10.4524 32.8128C10.4524 29.8826 14.9175 29.8826 16.2431 29.8826Z" fill="#9DBFFB"></path><path d="M15.7437 54.6849L15.7442 58.1793C15.7442 58.1793 22.2781 58.1938 23.5106 58.1938C24.6719 56.3602 21.0631 54.591 21.0631 54.591" fill="#EBF2FE"></path><path d="M16.0802 54.7202L16.0852 58.2045C16.0852 58.2045 9.62113 58.194 8.38862 58.194C7.22727 56.3604 10.8361 54.5912 10.8361 54.5912" fill="#EBF2FE"></path><g style="mix-blend-mode:multiply" opacity="0.5"><path d="M15.86 58.0907L15.8605 54.7826" stroke="#EBF2FE" stroke-width="0.418605" stroke-linecap="round" stroke-linejoin="round"></path><path d="M15.8599 54.6079L15.8594 37.4872" stroke="#9DBFFB" stroke-width="0.418605" stroke-linecap="round" stroke-linejoin="round"></path></g><path d="M19.5031 9.05629V13.5073C19.5031 14.0547 19.0562 14.5016 18.5074 14.5016H15.8637C14.0328 14.5016 12.5339 13.0042 12.5339 11.1733V9.05629C12.5339 7.22545 14.0328 5.72797 15.8637 5.72797H16.175C18.0058 5.72797 19.5031 7.22545 19.5031 9.05629Z" fill="#F9D3BD"></path><path d="M19.4211 7.52838C18.8844 6.30536 17.6079 5.51392 16.2537 5.55941L15.793 5.55968C14.0552 5.48741 12.5057 6.82331 12.3439 8.53373C12.3267 8.71094 12.3207 8.88906 12.3259 9.06703C12.3274 9.11702 12.3467 9.16484 12.3804 9.2018C12.4141 9.23877 12.4599 9.26244 12.5096 9.26852C12.5593 9.27519 12.6097 9.26355 12.6514 9.23577C12.6932 9.20799 12.7234 9.16597 12.7365 9.11754C12.8354 8.76675 13.0524 8.50359 13.3638 8.35666C13.8162 8.14317 14.4194 8.19048 15.1084 8.49368C15.793 8.79466 16.4029 8.43661 16.9411 8.12057C17.5077 7.78806 17.8789 7.60261 18.2525 7.82754C19.0457 8.30461 19.1888 8.75894 19.2836 9.0595L19.3051 9.1262C19.3207 9.17338 19.3526 9.21347 19.3951 9.23929C19.4375 9.2651 19.4878 9.27495 19.5369 9.26708C19.586 9.25921 19.6307 9.23412 19.6629 9.19632C19.6952 9.15852 19.713 9.11046 19.7131 9.06075C19.7131 8.44875 19.6169 7.94601 19.4211 7.52838Z" fill="#033180"></path><path d="M15.9293 17.3942C11.7781 17.3942 10.3871 23.097 10.3871 23.097L10.3924 32.8212H21.5142V23.097C21.5142 23.097 20.0804 17.3942 15.9293 17.3942Z" fill="#FF490C"></path><path d="M15.9526 17.3416C14.3706 17.3411 12.79 17.4327 11.2187 17.6161C8.62433 17.9185 6.6781 20.1365 6.6781 22.7485V36.0786C6.6781 36.0786 10.3871 36.5196 10.3871 32.4292V23.097M15.9526 17.3416C17.5345 17.3411 19.1151 17.4327 20.6864 17.6161C23.2808 17.9185 25.227 20.1365 25.227 22.7485V36.0786C25.227 36.0786 21.5181 36.5196 21.5181 32.4292V23.097" fill="#FF490C"></path><g style="mix-blend-mode:multiply" opacity="0.5"><path d="M21.3735 32.7707L21.3711 23.464M10.5595 32.7707L10.5584 28.3596L10.5571 23.464" stroke="#FF490C" stroke-width="0.418605" stroke-linecap="round" stroke-linejoin="round"></path></g><path d="M49.3322 17.2448C48.1569 17.2442 46.9815 17.311 45.8083 17.4453C43.2021 17.7436 41.2474 19.9755 41.2474 22.5987V36.0559C42.9722 36.0559 44.3704 34.6577 44.3704 32.9329V23.0229" fill="#074DC5"></path><path d="M49.3322 17.2448C50.5075 17.2442 51.6828 17.311 52.856 17.4453C55.4622 17.7436 57.4169 19.9755 57.4169 22.5987V36.0559C55.6922 36.0559 54.2939 34.6577 54.2939 32.9329V23.0229" fill="#074DC5"></path><path d="M53.5948 28.0579C55.5422 30.5683 56.2856 36.5997 55.4875 40.911L54.3987 46.7924L52.8883 54.9513L49.1328 55.5396L49.1478 47.736L49.1283 35.5409" fill="#9DBFFB"></path><path d="M45.0015 28.0579C43.0542 30.5683 42.3106 36.5997 43.1087 40.911L44.2613 47.1369L45.7079 54.9513L49.4679 55.557V35.5409" fill="#9DBFFB"></path><path d="M49.3126 26.0373C50.9542 26.0373 52.5616 26.5 53.5534 28.1019C54.6175 29.8205 52.46 36.5511 49.3126 36.538C46.1392 36.5249 43.6483 29.8403 44.9693 28.0663C46.0295 26.6425 47.671 26.0373 49.3126 26.0373Z" fill="#9DBFFB"></path><path d="M52.8882 54.9513C52.8882 54.9513 53.8951 56.1188 55.3118 57.8372H49.1283L49.1326 55.5396L49.1337 54.9902" fill="#EBF2FE"></path><path d="M45.7078 54.9513C45.7078 54.9513 44.7009 56.1188 43.2842 57.8372H49.4678V54.9814" fill="#EBF2FE"></path><path d="M52.8882 54.9513C52.8882 54.9513 53.8951 56.1188 55.3118 57.8372H49.1283L49.1326 55.5396L49.1337 54.9902" fill="#EBF2FE"></path><path d="M45.7078 54.9513C45.7078 54.9513 44.7009 56.1188 43.2842 57.8372H49.4678V54.9814" fill="#EBF2FE"></path><path d="M53.0548 55.1455C53.3967 55.5451 54.2361 56.5323 55.3118 57.8371H49.1283L49.1326 55.5396L49.1329 55.3742M45.541 55.1456C45.1992 55.5454 44.3599 56.5325 43.2842 57.8371H49.4678V55.3657" stroke="#EBF2FE" stroke-width="0.55814" stroke-linecap="round" stroke-linejoin="round"></path><path d="M49.3477 17.2547C43.8709 17.2547 44.2198 23.0105 44.2198 23.0105L44.998 28.0409H53.5975L54.3709 23.0803C54.3709 23.0803 54.8244 17.2547 49.3477 17.2547Z" fill="#074DC5"></path><path d="M55.6582 6.70543C56.0137 7.94533 55.2956 9.24078 54.0557 9.59631C52.8157 9.95185 51.5204 9.2338 51.1647 7.99389C50.8092 6.75399 51.5272 5.45854 52.7673 5.10301C54.0072 4.74747 55.3026 5.46552 55.6582 6.70543Z" stroke="#033180" stroke-width="0.976744"></path><path d="M55.6582 6.70543C56.0137 7.94533 55.2956 9.24078 54.0557 9.59631C52.8157 9.95185 51.5204 9.2338 51.1647 7.99389C50.8092 6.75399 51.5272 5.45854 52.7673 5.10301C54.0072 4.74747 55.3026 5.46552 55.6582 6.70543Z" fill="#033180"></path><path d="M46.0078 11.3211C46.1148 12.5605 46.2952 13.624 46.4961 14.2619C46.6252 14.6755 47.0317 14.9381 47.4628 14.8942L50.1719 14.5187C50.1719 14.5187 52.9147 14.0111 53.0555 9.56394C53.0629 9.32102 53.0629 9.07793 53.0555 8.83501C52.9661 5.83989 49.9152 5.77096 49.9152 5.77096C49.9152 5.77096 45.4196 5.00813 46.0078 11.3211Z" fill="#F9D3BD"></path><path d="M51.6976 6.31609V6.31749C51.6739 6.30214 51.6487 6.28679 51.6236 6.27284L51.5483 6.23098C51.4994 6.20307 51.4492 6.17795 51.399 6.15284C51.3922 6.15014 51.3857 6.14688 51.3794 6.14307C51.328 6.11981 51.2764 6.09702 51.2246 6.0747C51.1841 6.05656 51.1436 6.04121 51.1046 6.02586C51.0767 6.0147 51.0487 6.00493 51.0222 5.99656C50.9999 5.98818 50.9762 5.97981 50.9539 5.97284C50.9078 5.95749 50.8646 5.94353 50.8213 5.93098C50.7976 5.924 50.7753 5.91702 50.7529 5.91144C50.732 5.90446 50.7111 5.89888 50.6915 5.8947C50.6692 5.88911 50.6469 5.88353 50.626 5.87795C50.586 5.86865 50.546 5.85935 50.506 5.85004C50.4864 5.84586 50.4669 5.84167 50.4487 5.83888C50.4125 5.83051 50.379 5.82353 50.3455 5.81935C50.3301 5.81516 50.3148 5.81377 50.2994 5.81098C50.2967 5.81098 50.2925 5.80958 50.2897 5.80958C50.2883 5.80958 50.2855 5.80958 50.2841 5.80818C50.2701 5.80539 50.2562 5.804 50.2422 5.8026C50.2115 5.79842 50.1822 5.79423 50.1557 5.79144C50.1418 5.78851 50.1292 5.78725 50.1167 5.78586C50.079 5.78028 50.0455 5.77749 50.0176 5.77609C50.0078 5.77609 49.9994 5.7747 49.9911 5.7747C49.9757 5.7733 49.9618 5.77191 49.9506 5.77191C49.9255 5.76911 49.9129 5.76911 49.9129 5.76911C49.9129 5.76911 49.9101 5.76772 49.9046 5.76772C49.9018 5.76772 49.8962 5.76632 49.8906 5.76493C49.8836 5.76493 49.8739 5.76353 49.8627 5.76214C49.8515 5.76214 49.839 5.76074 49.8236 5.75795C49.8097 5.75516 49.7943 5.75377 49.7762 5.75237C49.7567 5.75098 49.7343 5.74818 49.7092 5.74679C49.645 5.7426 49.5669 5.73981 49.4762 5.74121H49.4413C49.419 5.74121 49.398 5.7426 49.3757 5.7426C49.3576 5.7426 49.3394 5.744 49.3213 5.744C49.285 5.74539 49.2487 5.74818 49.2097 5.75098L49.1622 5.75516C49.119 5.75795 49.0743 5.76214 49.0283 5.76772C49.0074 5.76911 48.9864 5.77191 48.9655 5.7747C48.9013 5.78446 48.8357 5.79423 48.7688 5.80679C48.7464 5.81098 48.7241 5.81516 48.7004 5.82074C48.6781 5.82493 48.6543 5.83051 48.632 5.83609C48.5846 5.84586 48.5385 5.85842 48.4911 5.87098C48.4674 5.87795 48.4436 5.88353 48.4199 5.89191C48.3976 5.89749 48.3739 5.90446 48.3501 5.91284C48.325 5.91981 48.2999 5.92818 48.2748 5.93795C48.2511 5.94632 48.2274 5.9547 48.2022 5.96307C48.1785 5.97284 48.1534 5.9826 48.1297 5.99237C48.1143 5.99656 48.1004 6.00353 48.085 6.01051C48.0753 6.0133 48.0655 6.01749 48.0557 6.02167C48.0418 6.02725 48.0278 6.03284 48.0153 6.03981L48.0069 6.044L47.9985 6.04818C47.9874 6.05237 47.9762 6.05656 47.965 6.06353C47.9371 6.07609 47.9106 6.08865 47.8827 6.104C47.866 6.11237 47.8478 6.12074 47.8297 6.13051C47.8185 6.13609 47.806 6.14307 47.7934 6.14865L47.792 6.15004C47.7794 6.15563 47.7669 6.1626 47.7543 6.17098H47.7529C47.7055 6.19609 47.6608 6.2226 47.6148 6.2547C47.6092 6.25749 47.605 6.26167 47.5994 6.26586C47.5925 6.27004 47.5869 6.27423 47.5799 6.27842C47.5729 6.2826 47.566 6.28679 47.5604 6.29098C47.5534 6.29516 47.5478 6.30074 47.5408 6.30493C47.5283 6.3133 47.5143 6.32167 47.5004 6.33144C47.4976 6.33284 47.4948 6.33563 47.492 6.33702C47.4683 6.35377 47.4446 6.37051 47.4208 6.38865C47.4167 6.39144 47.4125 6.39423 47.4083 6.39981C47.4055 6.39981 47.4027 6.4026 47.3999 6.40539C47.3706 6.42632 47.3427 6.44865 47.3148 6.47377C47.2827 6.50028 47.252 6.52679 47.2213 6.5533C47.1278 6.63423 47.0357 6.72632 46.9478 6.82818C46.9087 6.87004 46.8725 6.9147 46.8376 6.96074L46.8236 6.97888C46.6566 7.19977 46.5161 7.43956 46.405 7.6933C46.4078 7.6933 46.4106 7.69191 46.4134 7.69051H46.4148C46.7525 7.60818 47.1097 7.51051 47.4585 7.39888H47.4599C48.1283 7.184 48.7674 6.92167 49.1901 6.63423C49.1901 6.63423 49.3367 8.47051 52.9813 10.5049C52.9827 10.5049 52.9827 10.5063 52.9841 10.5063C53.0218 10.2147 53.0469 9.90353 53.0581 9.56865V9.56725C53.1937 7.88851 52.714 6.94651 51.6976 6.31609Z" fill="#033180"></path><path d="M46.1834 7.60752C46.5884 6.72928 47.1377 6.1777 47.9764 5.81421C47.9803 5.81249 47.9843 5.81091 47.9884 5.80947C48.5806 5.56947 49.2564 5.48226 49.8925 5.56403C50.2298 5.58105 50.5939 5.65193 50.975 5.77486C50.9803 5.77626 50.9858 5.77779 50.9911 5.77961C51.2724 5.87575 51.5207 5.991 51.7497 6.13124L51.7536 6.13333C53.1672 6.93775 53.2981 8.48142 53.2221 9.63524C53.2101 9.94905 53.1864 10.2532 53.1488 10.5354C53.1443 10.5692 53.1316 10.6014 53.1118 10.6292C53.092 10.657 53.0657 10.6796 53.0352 10.6949C53.0046 10.7102 52.9708 10.7178 52.9367 10.717C52.9026 10.7163 52.8691 10.7072 52.8393 10.6905C49.9784 9.09342 49.2158 7.60012 49.014 6.96859C48.1451 7.45947 46.8346 7.79938 46.4225 7.89872C46.3843 7.90785 46.3443 7.90604 46.3071 7.89351C46.2698 7.88099 46.2369 7.85825 46.2119 7.82788C46.187 7.79752 46.1711 7.76076 46.166 7.72179C46.161 7.68283 46.167 7.64323 46.1834 7.60752Z" fill="#033180"></path><g style="mix-blend-mode:multiply" opacity="0.5"><path d="M49.3472 57.8814L49.3477 55.0616" stroke="#EBF2FE" stroke-width="0.418605" stroke-linecap="round" stroke-linejoin="round"></path><path d="M49.3472 54.8869L49.3469 35.5686" stroke="#9DBFFB" stroke-width="0.418605" stroke-linecap="round" stroke-linejoin="round"></path></g><path d="M36.5956 20.4479V24.1725C36.5956 24.201 36.5939 24.2278 36.591 24.2549C36.5492 24.7192 36.1564 25.0865 35.6814 25.0865H33.5398C31.8598 25.0865 30.4841 23.7112 30.4841 22.0311V20.4479C30.4841 19.6071 30.8277 18.844 31.3818 18.2899C31.6782 17.9923 32.0332 17.7594 32.4242 17.6059C32.7792 17.4646 33.1578 17.3922 33.5398 17.3924C35.2215 17.3924 36.5956 18.7663 36.5956 20.4479Z" fill="#F9D3BD"></path><path d="M36.5017 18.9327C36.0345 17.8681 34.9231 17.1792 33.7445 17.2188L33.3433 17.2191C31.8308 17.1562 30.4819 18.3191 30.3411 19.8079C30.3261 19.9622 30.3209 20.1172 30.3255 20.2721C30.3267 20.3156 30.3436 20.3573 30.3729 20.3894C30.4022 20.4216 30.442 20.4422 30.4852 20.4475C30.5285 20.4533 30.5724 20.4432 30.6088 20.419C30.6451 20.3948 30.6715 20.3582 30.6828 20.3161C30.7689 20.0105 30.9577 19.7817 31.2288 19.6537C31.6226 19.4679 32.1478 19.5093 32.7475 19.7732C33.3435 20.0352 33.8743 19.7233 34.3428 19.4483C34.8361 19.1588 35.1591 18.9975 35.4844 19.1933C36.1746 19.6085 36.2995 20.004 36.382 20.2656L36.4005 20.3236C36.4141 20.3647 36.4419 20.3996 36.4789 20.4221C36.5159 20.4446 36.5597 20.4532 36.6024 20.4464C36.6452 20.4396 36.6841 20.4177 36.7123 20.3848C36.7404 20.3519 36.7559 20.31 36.7559 20.2667C36.7559 19.7339 36.6722 19.2964 36.5017 18.9327Z" fill="#033180"></path><path d="M33.5454 39.3361C31.7315 39.3361 28.7664 39.4407 28.7664 40.9058C28.7664 42.7198 32.0803 45.65 33.5803 45.65C35.0803 45.65 38.3594 42.5802 38.3594 41.0105C38.3594 39.4407 35.3594 39.3361 33.5454 39.3361Z" fill="#074DC5"></path><path d="M33.7592 45.2077L33.7581 50.7731L33.7571 55.6442L29.1569 55.0137L29.0111 49.7453L28.7683 40.9748" fill="#074DC5"></path><path d="M33.412 45.2077L33.4128 49.9411L33.4142 55.6093L38.0141 55.0136L38.1424 50.3862L38.4027 40.9746" fill="#074DC5"></path><path d="M28.7664 32.5529L28.771 40.9748H38.4031V32.5529" fill="#FFB399"></path><path d="M33.5105 27.5803C30.7547 27.5803 28.6965 30.4407 28.6965 32.4989C28.6965 34.557 32.7779 33.5454 33.6151 33.5454C34.4523 33.5454 38.4291 33.8244 38.4291 32.464C38.4291 31.1035 36.2663 27.5803 33.5105 27.5803Z" fill="#FFB399"></path><path d="M33.7572 55.0428L33.7571 55.6445L33.7565 58.134H27.0375C26.0316 56.5461 29.157 55.014 29.157 55.014" fill="#EBF2FE"></path><path d="M33.4139 55.0425L33.4141 55.6093L33.4146 58.1338H40.1338C41.1397 56.5459 38.0143 55.0138 38.0143 55.0138" fill="#EBF2FE"></path><g style="mix-blend-mode:multiply" opacity="0.5"><path d="M33.5732 57.8812L33.5737 55.0615" stroke="#EBF2FE" stroke-width="0.418605" stroke-linecap="round" stroke-linejoin="round"></path><path d="M33.5733 54.8867L33.5719 44.8823" stroke="#9DBFFB" stroke-width="0.418605" stroke-linecap="round" stroke-linejoin="round"></path></g><path d="M33.4964 27.5682C32.1264 27.5677 30.7575 27.6471 29.3966 27.8059C27.1497 28.0678 25.4641 29.9888 25.4641 32.2509V43.7957C25.4641 43.7957 28.8506 44.1775 28.8506 40.635V32.5528M33.5863 27.5682C34.9564 27.5677 36.3254 27.6471 37.6862 27.8059C39.933 28.0678 41.6188 29.9888 41.6188 32.2509V43.7957C41.6188 43.7957 38.2322 44.1775 38.2322 40.635V32.5528" fill="#FFB399"></path><g style="mix-blend-mode:multiply" opacity="0.5"><path d="M38.1524 40.9858L38.1513 37.5156L38.1499 33.214M28.978 40.9335L28.977 37.8728L28.9756 33.1617" stroke="#FFB399" stroke-width="0.418605" stroke-linecap="round" stroke-linejoin="round"></path></g></g></g></svg>


