<svg xmlns="http://www.w3.org/2000/svg" width="49" height="48" fill="none" viewBox="0 0 49 48">  <g clip-path="url(#a)">    <path fill="#074DC5" d="M27.628 28.418a7.408 7.408 0 0 1-3.315-2.79 7.746 7.746 0 0 1-1.244-4.221c0-2.567 2.154-4.563 4.629-4.298l12.42 1.552A16.987 16.987 0 0 0 23.843 6.53c-5.747 0-10.87 1.94-13.976 5.602a12.055 12.055 0 0 0-2.269 3.907 14.209 14.209 0 0 0-.61 6.613l1.425 9.036a.335.335 0 0 0 .29.279c3.443.422 7.512 1.385 11.751 2.868 7.224 2.527 13.114 5.925 15.866 8.874a.335.335 0 0 0 .5-.01c1.8-2.074 4.13-6.368 4.543-9.09l-13.736-6.192Zm-8.672-.254c-.223 1.156-1.872 1.81-3.683 1.459-1.812-.35-3.09-1.573-2.866-2.73.224-1.156 1.87-1.81 3.678-1.459 1.807.351 3.096 1.573 2.871 2.73Z"></path>    <path fill="#074DC5" d="M23.844 6.53c-5.747 0-10.87 1.941-13.976 5.603a12.055 12.055 0 0 0-2.269 3.907 14.209 14.209 0 0 0-.61 6.613l1.425 9.036a.335.335 0 0 0 .29.279c.738.092 1.504.207 2.298.347l-1.436-9.073a14.727 14.727 0 0 1 .63-6.858 12.479 12.479 0 0 1 2.352-4.05c2.902-3.416 7.491-5.387 12.725-5.747a17.87 17.87 0 0 0-1.429-.057Z" opacity=".5" style="mix-blend-mode:multiply"></path>    <path fill="#9DBFFB" d="M42.78 26.097c-.26-3.178-1.153-6.27-1.401-7.084a.334.334 0 0 0-.28-.233l-.981-.123-12.42-1.551c-2.475-.266-4.63 1.733-4.63 4.297a7.745 7.745 0 0 0 1.245 4.221 7.407 7.407 0 0 0 3.315 2.79l13.73 6.192.79.356a.333.333 0 0 0 .423-.13.334.334 0 0 0 .05-.151c.104-1.444.382-5.843.159-8.584Zm-14.677-2.276a1.91 1.91 0 1 1-.002-3.82 1.91 1.91 0 0 1 .002 3.82Z"></path>    <path fill="#9DBFFB" d="M28.96 27.53a7.408 7.408 0 0 1-3.315-2.79 7.745 7.745 0 0 1-1.242-4.224 4.36 4.36 0 0 1 1.294-3.125 4.32 4.32 0 0 0-2.626 4.008 7.743 7.743 0 0 0 1.245 4.22 7.407 7.407 0 0 0 3.314 2.791l13.73 6.191.79.356a.336.336 0 0 0 .473-.28c.018-.245.04-.574.064-.965L28.96 27.53Z" opacity=".5" style="mix-blend-mode:multiply"></path>    <path fill="#FF490C" d="M30.012 21.913a1.91 1.91 0 1 1-3.82 0 1.91 1.91 0 0 1 3.82 0Zm-11.056 6.251c-.223 1.156-1.872 1.81-3.683 1.459-1.812-.35-3.09-1.573-2.866-2.73.224-1.156 1.87-1.809 3.678-1.459 1.807.351 3.096 1.573 2.871 2.73Z"></path>    <path fill="#FF490C" d="M28.654 23.74a1.866 1.866 0 0 1-.55.081 1.908 1.908 0 0 1-1.807-2.65 1.91 1.91 0 0 1 1.806-1.168c.187 0 .372.027.55.081a1.909 1.909 0 0 0 0 3.656ZM16.79 29.685a4.878 4.878 0 0 1-1.512-.062c-1.807-.35-3.09-1.573-2.865-2.73.207-1.068 1.627-1.706 3.267-1.521-1.136.136-2.01.703-2.167 1.521-.223 1.157 1.059 2.38 2.866 2.73.138.026.274.048.41.062Z" opacity=".5" style="mix-blend-mode:multiply"></path>    <mask id="b" width="36" height="38" x="6" y="6" maskUnits="userSpaceOnUse" style="mask-type:alpha">      <path fill="#3A3347" d="M27.628 28.418a7.408 7.408 0 0 1-3.315-2.79 7.746 7.746 0 0 1-1.244-4.221c0-2.567 2.154-4.563 4.629-4.298l12.42 1.552A16.987 16.987 0 0 0 23.843 6.53c-5.747 0-10.87 1.94-13.976 5.602a12.055 12.055 0 0 0-2.269 3.907 14.209 14.209 0 0 0-.61 6.613l1.425 9.036a.335.335 0 0 0 .29.279c3.443.422 7.512 1.385 11.751 2.868 7.224 2.527 13.114 5.925 15.866 8.874a.335.335 0 0 0 .5-.01c1.8-2.074 4.13-6.368 4.543-9.09l-13.736-6.192Zm-8.672-.254c-.223 1.156-1.872 1.81-3.683 1.459-1.812-.35-3.09-1.573-2.866-2.73.224-1.156 1.87-1.81 3.678-1.459 1.807.351 3.096 1.573 2.871 2.73Z"></path>    </mask>    <g mask="url(#b)">      <path stroke="#FF490C" stroke-linecap="round" stroke-linejoin="round" stroke-width=".781" d="m12.682 17.533-4.746-2.352m6.672-.696L9.861 12.13"></path>    </g>  </g>  <defs>    <clipPath id="a">      <path fill="#fff" d="M.5 0h48v48H.5z"></path>    </clipPath>  </defs></svg>


