<svg xmlns="http://www.w3.org/2000/svg" width="48" height="48" fill="none" viewBox="0 0 48 48">  <g clip-path="url(#a)">    <path fill="#9DBFFB" d="M15.195 17.885h-4.22V33.11h4.22V17.885Z"></path>    <path fill="#074DC5" d="M16.601 34.518H9.57l.276-1.155a.49.49 0 0 1 .477-.375h5.525a.489.489 0 0 1 .476.375l.278 1.155Z"></path>    <path fill="#9DBFFB" d="M25.744 17.885h-4.22V33.11h4.22V17.885Z"></path>    <path fill="#074DC5" d="M27.15 34.518h-7.033l.28-1.155a.49.49 0 0 1 .476-.375H26.4a.49.49 0 0 1 .476.375l.275 1.155Z"></path>    <path fill="#9DBFFB" d="M36.292 17.885h-4.22V33.11h4.22V17.885Z"></path>    <path fill="#074DC5" d="M37.699 34.518h-7.033l.278-1.155a.49.49 0 0 1 .477-.375h5.524a.49.49 0 0 1 .477.375l.277 1.155Z"></path>    <path fill="#9DBFFB" d="M39.105 37.899H8.162v-3.014a.488.488 0 0 1 .49-.49h29.963a.49.49 0 0 1 .49.49v3.014Z"></path>    <path fill="#074DC5" d="M15.847 18.007h-5.525a.492.492 0 0 1-.477-.37l-.276-1.16H16.6l-.278 1.16a.49.49 0 0 1-.476.37Zm10.549 0h-5.525a.49.49 0 0 1-.474-.37l-.277-1.154h7.032l-.281 1.154a.49.49 0 0 1-.474.37Zm10.549 0h-5.524a.49.49 0 0 1-.477-.376l-.278-1.154H37.7l-.277 1.16a.492.492 0 0 1-.477.37Z"></path>    <path fill="#9DBFFB" d="M6.756 13.564h33.75v2.546a.49.49 0 0 1-.49.49H7.246a.49.49 0 0 1-.49-.49v-2.546Zm0 0 16.33-8.834a1.228 1.228 0 0 1 1.096 0l16.33 8.834H6.756Z"></path>    <path fill="#9DBFFB" d="M39.105 37.899H8.162v-3.014a.488.488 0 0 1 .49-.49h29.963a.49.49 0 0 1 .49.49v3.014Z" opacity=".6" style="mix-blend-mode:multiply"></path>    <path fill="#9DBFFB" d="M41.43 37.654H5.84a.49.49 0 0 0-.49.49v3.24c0 .27.218.49.49.49h35.59c.27 0 .49-.22.49-.49v-3.24a.49.49 0 0 0-.49-.49Z"></path>    <path stroke="#9DBFFB" stroke-linecap="round" stroke-linejoin="round" stroke-width=".781" d="M34.183 20.122v10.751" opacity=".6" style="mix-blend-mode:multiply"></path>    <path fill="#9DBFFB" d="M6.756 13.564h33.75v2.546a.49.49 0 0 1-.49.49H7.246a.49.49 0 0 1-.49-.49v-2.546Z" opacity=".6" style="mix-blend-mode:multiply"></path>    <path fill="#074DC5" d="M23.634 11.226a1.98 1.98 0 1 0 0-3.958 1.98 1.98 0 0 0 0 3.958Z"></path>    <path stroke="#9DBFFB" stroke-linecap="round" stroke-linejoin="round" stroke-width=".781" d="M13.085 20.122v10.751m10.549-10.751v10.751" opacity=".6" style="mix-blend-mode:multiply"></path>  </g>  <defs>    <clipPath id="a">      <path fill="#fff" d="M0 0h48v48H0z"></path>    </clipPath>  </defs></svg>


