<svg xmlns="http://www.w3.org/2000/svg" width="49" height="48" fill="none" viewBox="0 0 49 48">  <g clip-path="url(#a)">    <path fill="#FF490C" d="M19.42 20.464h-3.664v5.664h3.665v-5.664Zm-3.664 0h-3.664v5.664h3.664v-5.664Z"></path>    <path fill="#FF490C" d="M12.091 20.464H8.428v5.664h3.665v-5.664Z"></path>    <path fill="#074DC5" d="M44.015 36.773v3.277a.335.335 0 0 1-.335.335h-3.147a5.293 5.293 0 0 1-4.063-1.898l-8.575-10.279a5.781 5.781 0 0 0-4.438-2.077h-4.036v-5.69h6.662a5.78 5.78 0 0 1 4.445 2.092l9.488 11.452a3.015 3.015 0 0 0 2.338 1.094 1.674 1.674 0 0 1 1.66 1.694Z"></path>    <path fill="#074DC5" d="M44.015 38.847v1.2a.335.335 0 0 1-.335.336h-3.147a5.296 5.296 0 0 1-4.063-1.898l-8.575-10.279a5.78 5.78 0 0 0-4.438-2.077h-4.036v-1.537h4.036a5.778 5.778 0 0 1 4.438 2.077l8.575 10.28a5.295 5.295 0 0 0 4.063 1.898h3.482Z" opacity=".5" style="mix-blend-mode:multiply"></path>    <path fill="#FF490C" d="M9.629 20.464H8.427v5.664h1.202v-5.664Zm7.329 0h-1.202v5.664h1.202v-5.664Zm-3.664 0h-1.202v5.664h1.202v-5.664Z" opacity=".5" style="mix-blend-mode:multiply"></path>    <path stroke="#FF490C" stroke-linecap="round" stroke-linejoin="round" stroke-width=".781" d="M8.437 12.025v28.247M19.43 12.025v28.247m0-10.313H8.437m10.993 3.768H8.437"></path>    <path stroke="#074DC5" stroke-linecap="round" stroke-linejoin="round" stroke-width=".781" d="m4.976 14.745 8.947-7.13 8.947 7.13"></path>    <path stroke="#FF490C" stroke-linecap="round" stroke-linejoin="round" stroke-width=".781" d="M19.43 37.496H8.437"></path>  </g>  <defs>    <clipPath id="a">      <path fill="#fff" d="M.5 0h48v48H.5z"></path>    </clipPath>  </defs></svg>


