<svg xmlns="http://www.w3.org/2000/svg" width="48" height="48" fill="none" viewBox="0 0 48 48">  <g clip-path="url(#a)">    <path stroke="#074DC5" stroke-linecap="round" stroke-linejoin="round" stroke-width="1.34" d="M28.071 44.93a.537.537 0 1 0 0-1.074.537.537 0 0 0 0 1.074Zm2.539 0a.537.537 0 1 0 0-1.075.537.537 0 0 0 0 1.075Zm2.539 0a.537.537 0 1 0 0-1.074.537.537 0 0 0 0 1.074Z"></path>    <path fill="#9DBFFB" d="M28.071 44.93a.537.537 0 1 0 0-1.074.537.537 0 0 0 0 1.074Zm2.539 0a.537.537 0 1 0 0-1.075.537.537 0 0 0 0 1.075Zm2.539 0a.537.537 0 1 0 0-1.074.537.537 0 0 0 0 1.074Z"></path>    <path fill="#074DC5" d="M33.149 44.758a.365.365 0 1 0 0-.73.365.365 0 0 0 0 .73Zm-2.539 0a.365.365 0 1 0 0-.73.365.365 0 0 0 0 .73Zm-2.539 0a.365.365 0 1 0 0-.73.365.365 0 0 0 0 .73Zm-6.055-23.462 5.43 12.684.112 9.876h5.973c.912-1.621-1.973-3.014-1.973-3.014l.447-7.691-3.45-9.052"></path>    <path fill="#074DC5" d="m22.016 21.296 5.43 12.684.112 9.876h5.973c.912-1.62-1.973-3.014-1.973-3.014l.447-7.691-3.45-9.052" opacity=".5" style="mix-blend-mode:multiply"></path>    <path fill="#FF490C" d="m27.5 38.791.055 5.065h5.974c.911-1.62-1.973-3.014-1.973-3.014l.118-2.053-4.174.002Z"></path>    <path fill="#FF490C" d="m27.5 38.791.055 5.065h5.974c.911-1.62-1.973-3.014-1.973-3.014l.118-2.053-4.174.002Z" opacity=".5" style="mix-blend-mode:multiply"></path>    <path stroke="#FF490C" stroke-linecap="round" stroke-linejoin="round" stroke-width="1.34" d="M27.294 43.856h6.612"></path>    <path stroke="#FF490C" stroke-linecap="round" stroke-linejoin="round" stroke-width="1.34" d="M27.294 43.856h6.612" opacity=".5" style="mix-blend-mode:multiply"></path>    <path stroke="#9DBFFB" stroke-linecap="round" stroke-linejoin="round" stroke-width=".781" d="M31.49 39.694h-1.03"></path>    <path fill="#9DBFFB" d="M28.348 11.421c-.044 0-.086 0-.128.01l-9.228.823-4.944 3.62c-1.212 1.811.085 3.056.588 3.444a.3.3 0 0 0 .363-.004l5.389-3.955 6.724-.373"></path>    <path fill="#9DBFFB" d="M28.348 11.421c-.043 0-.086 0-.128.01l-9.227.823-4.944 3.62c-1.212 1.811.084 3.056.588 3.443a.3.3 0 0 0 .363-.004l5.388-3.954 6.725-.373" opacity=".5" style="mix-blend-mode:multiply"></path>    <path fill="#9DBFFB" d="m28.552 24.102-6.536-2.806 3.32-7.732a3.558 3.558 0 0 1 6.536 2.808l-3.32 7.73Z"></path>    <path fill="#9DBFFB" d="m29.288 22.387-2.902-5.409c.223 1.444 1.409 3.52 1.626 4.965.112.73-.177.761-.646 1.71.393.2.781.248 1.179.447l.743-1.713Z" opacity=".5" style="mix-blend-mode:multiply"></path>    <path fill="#F9D3BD" d="m33.546 3.036.923.396a2.12 2.12 0 0 1 1.112 2.786l-1.523 3.547a.635.635 0 0 1-.834.333l-2.288-.983a2.12 2.12 0 0 1-1.112-2.786l.935-2.178a2.12 2.12 0 0 1 2.787-1.115Z"></path>    <path fill="#F9D3BD" d="m30.848 6.764.934-2.17a2.129 2.129 0 0 1 2.737-1.136l-.05-.025-.924-.396a2.13 2.13 0 0 0-2.79 1.116l-.934 2.174a2.13 2.13 0 0 0 1.117 2.79l1.025.44a2.13 2.13 0 0 1-1.115-2.793Z" opacity=".5" style="mix-blend-mode:multiply"></path>    <path fill="#074DC5" d="M22.016 21.296 18.59 30.07l-8.452 5.232s2.756 4.362 3.29 5.197c1.755-.223 1.388-3.333 1.388-3.333l6.921-3.707 6.81-9.359"></path>    <path stroke="#074DC5" stroke-linecap="round" stroke-linejoin="round" stroke-width="1.34" d="M10.056 36.594a.537.537 0 1 0 0-1.073.537.537 0 0 0 0 1.073Zm1.358 2.146a.537.537 0 1 0 0-1.074.537.537 0 0 0 0 1.074Zm1.358 2.144a.537.537 0 1 0 0-1.074.537.537 0 0 0 0 1.074Z"></path>    <path fill="#FF490C" d="m16.636 36.191-2.233-3.527-4.266 2.639s2.756 4.362 3.29 5.197c1.755-.223 1.388-3.333 1.388-3.333l1.82-.974v-.002Z"></path>    <path fill="#9DBFFB" d="M12.772 40.884a.537.537 0 1 0 0-1.074.537.537 0 0 0 0 1.074Zm-1.358-2.144a.537.537 0 1 0 0-1.074.537.537 0 0 0 0 1.074Zm-1.358-2.146a.537.537 0 1 0 0-1.073.537.537 0 0 0 0 1.073Zm18.84-22.239 2.98 6.041 5.748 3.407a.3.3 0 0 1 .146.332c-.16.616-.799 2.298-2.939 1.892L29.562 22.9l-4.576-8.54"></path>    <path fill="#032663" d="M35.666 5.995a2.145 2.145 0 0 0-1.216-2.567l-.901-.397a2.12 2.12 0 0 0-1.786.054c-.149.08-.29.174-.419.281a2.101 2.101 0 0 0-.586.782l-.198.46c.293-.174.63-.26.97-.245.76.06.81.767 1.608 1.02.884.28 1.42-.365 1.988.01.228.152.413.358.54.6v.002Z"></path>    <path fill="#032663" d="M33.545 3.031a2.147 2.147 0 0 0-.611-.155h-.013a2.803 2.803 0 0 0-.192-.01h-.019c-.059 0-.118 0-.177.009h-.04c-.045 0-.09.01-.133.019l-.083.015-.111.026-.103.03-.092.033-.098.039-.017.007c-.029.014-.059.026-.087.04-.15.08-.293.174-.425.282a2.093 2.093 0 0 0-.526.659l-.017.03-.043.095-.198.46c.293-.174.63-.26.97-.245.112.008.22.035.323.08a2.13 2.13 0 0 1 2.666-.988l-.05-.024-.924-.402Z" opacity=".5" style="mix-blend-mode:multiply"></path>    <path fill="#074DC5" d="M10.056 36.422a.365.365 0 1 0 0-.73.365.365 0 0 0 0 .73Zm1.358 2.146a.365.365 0 1 0 0-.73.365.365 0 0 0 0 .73Zm1.358 2.144a.365.365 0 1 0 0-.73.365.365 0 0 0 0 .73Z"></path>    <path stroke="#FF490C" stroke-linecap="round" stroke-linejoin="round" stroke-width="1.34" d="m10.056 35.054 3.753 5.927"></path>    <path stroke="#9DBFFB" stroke-linecap="round" stroke-linejoin="round" stroke-width=".781" d="m15.831 36.704-.55-.871"></path>  </g>  <defs>    <clipPath id="a">      <path fill="#fff" d="M0 0h48v48H0z"></path>    </clipPath>  </defs></svg>


