<svg xmlns="http://www.w3.org/2000/svg" width="49" height="48" fill="none" viewBox="0 0 49 48">  <ellipse cx="24.5" cy="40.5" fill="#074DC5" rx="18" ry="4.5"></ellipse>  <ellipse cx="24.5" cy="40.5" fill="#032663" rx="6" ry="1.5"></ellipse>  <path fill="#074DC5" d="m30.138 21.183-7.584.216.009 1.07 3.783 3.058 3.928-3.128-.136-1.216Z"></path>  <path fill="#074DC5" d="m26.32 25.318 1.044 4.26-3.505 4.635 2.564 1.928 4.823-5.88-1.03-8.485"></path>  <path fill="#FF490C" d="m23.932 34.114-.721.975-.781 1.136 2.088 1.664 2.067 1.648c1.563-1.831-.066-3.493-.066-3.493"></path>  <path fill="#074DC5" d="m22.587 22.26-1.718 6.143-4.224 1.746 1.206 2.892 5.556-2.282 2.914-5.399"></path>  <path fill="#FF490C" d="m16.741 30.131-1.296.51-1.212.658 1.105 2.43 1.094 2.406c2.224-.921 1.527-3.142 1.527-3.142"></path>  <path fill="#9DBFFB" d="m22.234 14.689.341 7.551 7.66-.401-.46-9.591c-.423.02-3.716.333-5.827.549-1.113.114-1.363 1.847-1.714 1.892Z"></path>  <path fill="#9DBFFB" d="M27.72 12.38s.84-1.332 1.461-2.457c.622-1.125 1.667-2.802 1.667-2.802l2.017-3.392c1.23-2.772 3.516-.797 3.516-.797l-3.213 5.704-3.413 6.058"></path>  <path fill="#F9D3BD" d="m27.235 10.153-1.837.086a2.026 2.026 0 0 1-2.114-1.923l-.075-1.577a1.966 1.966 0 0 1 .104-.737c0-.004.002-.007.004-.01a2.028 2.028 0 0 1 1.816-1.369l.422-.019a2.027 2.027 0 0 1 2.114 1.923l.142 2.992a.606.606 0 0 1-.575.632v.002Z"></path>  <path fill="#032663" d="M27.663 6.512c-.081-.184-.197-.538-.823-.835-.689-.325-1.192.887-1.975.633-.964-.314-1.544.076-1.642.666a2.657 2.657 0 0 1-.023-.328c-.012-1.046.83-1.944 1.872-2.01l.3-.032a2.013 2.013 0 0 1 2.02.99c.16.267.239.584.273.915h-.002Z"></path>  <path fill="#9DBFFB" d="m22.215 15.36.36 6.88 7.66-.401-.362-6.88a3.05 3.05 0 0 0-.028-.295"></path>  <path fill="#9DBFFB" d="m22.257 15.606-.481-.609-4.272-4.791-4.254-4.77s1.81-2.419 3.605.026l2.675 2.86 4.248 4.562"></path></svg>


