<svg xmlns="http://www.w3.org/2000/svg" width="48" height="48" fill="none" viewBox="0 0 48 48">  <g clip-path="url(#a)">    <path fill="#9DBFFB" stroke="#9DBFFB" stroke-linecap="round" stroke-linejoin="round" stroke-width=".781" d="M44.228 42.052V30.56a3.997 3.997 0 1 1-7.991 0 3.995 3.995 0 0 1-7.99 0 3.997 3.997 0 1 1-7.992 0v.01a3.996 3.996 0 0 1-7.991 0 3.995 3.995 0 0 1-7.99 0v11.357l39.954.125Z"></path>    <path fill="#F9D3BD" d="m7.775 5.557.516-.212a2.35 2.35 0 0 1 3.067 1.28L12.71 9.92a.703.703 0 0 1-.383.917l-2.04.838a2.35 2.35 0 0 1-3.066-1.282l-.727-1.77a2.35 2.35 0 0 1 1.281-3.066Z"></path>    <path fill="#F9D3BD" d="M8.254 9.97 7.527 8.2a2.356 2.356 0 0 1 1.027-2.943c-.091.025-.18.055-.268.09l-.511.21a2.357 2.357 0 0 0-1.28 3.067l.726 1.775a2.357 2.357 0 0 0 3.066 1.281l1.033-.424A2.356 2.356 0 0 1 8.254 9.97Z" opacity=".5" style="mix-blend-mode:multiply"></path>    <path fill="#032663" d="M11.254 6.5a2.46 2.46 0 0 0-.112-.198l-.02-.034-.05-.077a2.358 2.358 0 0 0-2.82-.832l-.245.1A2.926 2.926 0 0 0 6.5 6.773a2.354 2.354 0 0 0-.206 1.17v.073c.059.329.157.648.293.953.068-.341.24-.653.491-.893.537-.47 1.043-.04 1.733-.405.77-.416.693-1.196 1.315-1.33.403-.087 1.082-.023 1.274.497l-.08-.196c-.02-.049-.045-.096-.066-.142Z"></path>    <path fill="#074DC5" d="m18.986 23.372 5.337 5.568 1.197 10.448s-.782 1.425-1.967 1.531c-.996.09-1.993-1.243-1.993-1.243l-.771-8.626-5.581-6.06-.02-.02"></path>    <path fill="#074DC5" d="m18.986 23.372 5.337 5.568 1.197 10.448s-.782 1.425-1.967 1.531c-.996.09-1.993-1.243-1.993-1.243l-.771-8.626-5.581-6.06-.02-.02" opacity=".5" style="mix-blend-mode:multiply"></path>    <path stroke="#074DC5" stroke-linecap="round" stroke-linejoin="round" stroke-width=".781" d="m21.953 22.689 3.229-11.916m-1.309 4.775 21.23-11.524"></path>    <path fill="#9DBFFB" d="m13.675 13.903 6.434 1.378 6.299-2.419s1.767 1.869-.193 3.572l-5.585 2.137-9.316-1.675"></path>    <path stroke="#074DC5" stroke-linecap="round" stroke-linejoin="round" stroke-width=".781" d="m22.874 21.35 22.23-12.066"></path>    <path fill="#9DBFFB" d="m13.675 13.903 6.434 1.378 6.3-2.419s1.766 1.869-.194 3.572l-5.585 2.137-9.316-1.675" opacity=".5" style="mix-blend-mode:multiply"></path>    <path fill="#9DBFFB" d="m18.987 23.37-6.394 2.73-3.226-7.562a3.475 3.475 0 1 1 6.39-2.726l3.23 7.559Z"></path>    <path fill="#074DC5" d="m16.388 24.479 5.34 5.566 1.197 10.448s-.67 1.416-1.856 1.523c-.995.089-1.864-1.03-1.864-1.03L18.2 32.15s-4.156-2.281-5.582-6.06"></path>    <path fill="#FF490C" d="M10.828 42.052s12.446-9.6 19.338-8.937c6.892.663 1.451 8.937 1.451 8.937h-20.79Z"></path>    <path fill="#9DBFFB" stroke="#9DBFFB" stroke-linecap="round" stroke-linejoin="round" stroke-width=".781" d="M44.228 41.788a3.995 3.995 0 0 1-4.746-3.923 3.997 3.997 0 0 1-7.992 0 3.995 3.995 0 1 1-7.99 0 3.995 3.995 0 1 1-7.99 0 3.997 3.997 0 0 1-3.995 3.995h-.026a3.995 3.995 0 0 1-3.969-3.995 3.996 3.996 0 0 1-3.247 3.925v4.198h39.955v-4.2Zm-32.707.073h-.014.013Z"></path>    <g opacity=".5" style="mix-blend-mode:multiply">      <path fill="#9DBFFB" d="M44.228 41.788a3.995 3.995 0 0 1-4.746-3.923 3.997 3.997 0 0 1-7.992 0 3.995 3.995 0 1 1-7.99 0 3.995 3.995 0 1 1-7.99 0 3.997 3.997 0 0 1-3.995 3.995h-.026a3.995 3.995 0 0 1-3.969-3.995 3.996 3.996 0 0 1-3.247 3.925v4.198h39.955v-4.2Zm-32.707.073h-.014.013Z"></path>      <path stroke="#9DBFFB" stroke-linecap="round" stroke-linejoin="round" stroke-width=".781" d="M44.228 41.788a3.995 3.995 0 0 1-4.746-3.923 3.997 3.997 0 0 1-7.992 0 3.995 3.995 0 1 1-7.99 0 3.995 3.995 0 1 1-7.99 0 3.997 3.997 0 0 1-3.995 3.995h-.026a3.995 3.995 0 0 1-3.969-3.995 3.996 3.996 0 0 1-3.247 3.925v4.198h39.955v-4.2Zm-32.707.073h-.014.013Z"></path>    </g>    <path fill="#9DBFFB" d="m9.935 19.63 6.022 3.555 5.942.733c2.527-.58 1.908-3.201 1.908-3.201l-6.698-.82-4.87-2.887"></path>    <path fill="#9DBFFB" d="m15.958 23.184-3.35-1.975a.524.524 0 0 0-.173.947l2.403 1.587 2.542.313c.335-.147.935-.393 1.265-.54" opacity=".5" style="mix-blend-mode:multiply"></path>  </g>  <defs>    <clipPath id="a">      <path fill="#fff" d="M0 0h48v48H0z"></path>    </clipPath>  </defs></svg>


