<svg xmlns="http://www.w3.org/2000/svg" width="49" height="48" fill="none" viewBox="0 0 49 48">  <g clip-path="url(#a)">    <path stroke="#FF490C" stroke-linecap="round" stroke-linejoin="round" stroke-width=".781" d="M29.021 39.926v-9.32"></path>    <path fill="#FF490C" d="M17.438 7.782H6.26v5.748h11.178V7.782Z"></path>    <path fill="#FF490C" d="M7.718 7.782H6.26v5.747h1.46V7.782Zm7.452 0h-1.46v5.747h1.46V7.782Zm-3.726 0h-1.46v5.748h1.46V7.782Z" opacity=".5" style="mix-blend-mode:multiply"></path>    <path fill="#074DC5" d="M41.986 36.42a.335.335 0 0 1-.465.2l-12.503-6.027-7.65-3.693a2.599 2.599 0 0 1 1.132-4.936c.273 0 .543.043.802.13a2.59 2.59 0 0 1 2.29-4.634l-8.154-3.93V7.782L36.51 16.96a2.59 2.59 0 0 1-1.132 4.924c-.346 0-.687-.07-1.005-.206a2.59 2.59 0 0 1-2.004 4.761l4.029 1.945a.334.334 0 0 1 .174.4 2.748 2.748 0 0 0 1.411 3.342l2.693 1.3a2.514 2.514 0 0 1 1.309 2.994Z"></path>    <path fill="#074DC5" d="M37.72 20.418a2.602 2.602 0 0 1-3.341 1.264l-.067-.034-8.582-4.13a2.4 2.4 0 0 0-.124-.055h-.007l-3.042-1.47-5.12-2.464v-2.278l8.157 3.927a.01.01 0 0 1 .007 0l8.661 4.17c.034.015.067.03.102.044.32.14.666.21 1.015.21a2.6 2.6 0 0 0 2.333-1.451 2.59 2.59 0 0 1 .009 2.267Zm4.266 16.004a.333.333 0 0 1-.465.2l-20.148-9.7a2.597 2.597 0 0 1-1.202-3.476 2.58 2.58 0 0 0 1.202 1.198l20.4 9.824a2.504 2.504 0 0 1 .213 1.954Zm-6.749-10.855a2.603 2.603 0 0 1-2.055 1.005c-.387 0-.768-.087-1.116-.255l-8.581-4.13a2.597 2.597 0 0 1-1.464-2.42 2.565 2.565 0 0 1 1.6.209l11.616 5.591Z" opacity=".5" style="mix-blend-mode:multiply"></path>    <path stroke="#FF490C" stroke-linecap="round" stroke-linejoin="round" stroke-width=".781" d="M17.438 16.936H6.26m11.178 5.249-5.59-5.248M6.26 22.185l5.589-5.248M6.26 39.194V7.782m11.178 31.412V7.782"></path>    <path stroke="#074DC5" stroke-linecap="round" stroke-linejoin="round" stroke-width=".781" d="M15.603 36.197a3.998 3.998 0 0 1-5.495 3.71m29.467-3.71a4 4 0 0 0 5.494 3.71"></path>    <path stroke="#074DC5" stroke-linecap="round" stroke-linejoin="round" stroke-width=".781" d="M23.593 36.197a3.995 3.995 0 0 1-7.99 0"></path>    <path stroke="#074DC5" stroke-linecap="round" stroke-linejoin="round" stroke-width=".781" d="M31.583 36.197a3.995 3.995 0 1 1-7.99 0m15.982 0a3.996 3.996 0 0 1-7.992 0m-23.969.001a3.995 3.995 0 0 0 5.493 3.709"></path>    <path stroke="#074DC5" stroke-linecap="round" stroke-linejoin="round" stroke-width=".781" d="M7.614 36.198a3.996 3.996 0 0 1-3.997 3.995"></path>  </g>  <defs>    <clipPath id="a">      <path fill="#fff" d="M.5 0h48v48H.5z"></path>    </clipPath>  </defs></svg>


