<svg xmlns="http://www.w3.org/2000/svg" width="49" height="48" fill="none" viewBox="0 0 49 48">  <g clip-path="url(#a)">    <path stroke="#074DC5" stroke-linecap="round" stroke-linejoin="round" stroke-width=".781" d="M7.246 19.382c-2.77 1.315-4.025 4.465-2.805 7.032"></path>    <path fill="#074DC5" d="M41.788 33.983c-3.16 2.431-4.987.037-5.49-.792a.336.336 0 0 1 .08-.435l1.08-.853.357-.281a.296.296 0 0 1 .433.076l.005.008a1.379 1.379 0 0 0 .231.298l.04.035c.404.352.92.29 1.432-.064l.07-.05c.07-.053.14-.112.209-.172l.02-.02.062-.059a.655.655 0 0 0 .04-.039c1.265-1.258 2.321-4.176 1.339-6.847l-.01-.028a5.969 5.969 0 0 0-.59-1.175.336.336 0 0 0-.336-.152c-.781.124-3.717.446-7.789-.857a16.823 16.823 0 0 1-.377-.079 16.182 16.182 0 0 1-1.47-.385l-.046-.014-.676 12.101a.336.336 0 0 0 .035.169l1.154 2.306a.336.336 0 0 1-.299.485H26.79a.335.335 0 0 1-.335-.315l-.615-10.047c-2.01 1.495-4.74 2.413-7.741 2.413a13.766 13.766 0 0 1-5.31-1.037.335.335 0 0 0-.466.288l-.32 5.686a.335.335 0 0 0 .036.169l1.154 2.307a.335.335 0 0 1-.3.484h-4.5a.334.334 0 0 1-.335-.314l-.95-15.963c0-4.81 4.8-9.035 10.99-9.035 1.563 0 3.05.14 4.401.588 0 0 2.485-1.31 6.065-1.148a7.231 7.231 0 0 1 2.325-.387h.233c.104 0 .205.01.304.018l.178.018c.118.012.232.029.343.047l.165.029a6.46 6.46 0 0 1 1.304.386c.303.118.592.268.863.446 2.155.08 3.684.03 4.853.806 1.787 1.197 11.482 14.596 2.657 21.385Z"></path>    <path fill="#074DC5" d="M35.1 17.684v.118c-.07 1.212-2.059 4.653-2.132 4.778l-.202-.04-.176-.038a18.18 18.18 0 0 1-.886-.214l-.188-.053-.12-.034c-.083-.025-.164-.048-.244-.074l-.035-.011-.035-.015h-.009c-8.27-2.62-5.574-9.79-2.607-10.839l.101-.034a7.371 7.371 0 0 1 1.556-.348l.208-.019.142-.01c.177-.01.35-.013.518-.01h.123c.053 0 .104 0 .155.008l.14.01c.287.023.574.066.857.126l.111.025.042.01.059.014a4.52 4.52 0 0 1 .37.104l.13.042c.025.008.051.016.075.026.127.044.243.09.35.134-.633-.111-2.622-.111-3.956.447a4.733 4.733 0 0 0-1.685 1.107c-.3.314-1.123 1.26-1.245 2.623-.19 2.095 1.395 3.786 2.747 4.528.587.321 2.38 1.222 3.37.908 1.511-.482 2.466-3.269 2.467-3.269Zm2.357 14.219.356-.281a.3.3 0 0 1 .234-.058.297.297 0 0 1 .2.134v.008c.033.058.07.113.111.166.036.047.076.091.12.132l.039.035c.404.359.92.296 1.432-.064l.07-.05c.072-.055.14-.113.207-.175l.02-.019.062-.059.04-.039c1.27-1.262 2.33-4.196 1.329-6.875 0 .01.009.02.012.03 3.002 7.235-2.877 10.204-4.232 7.115ZM18.099 11.788c.262 0 .521 0 .781.012-5.903.257-10.404 4.366-10.404 9.023l.966 16.282h-1.05a.335.335 0 0 1-.334-.315l-.95-15.962c.001-4.815 4.802-9.04 10.99-9.04Zm9.14 14.759.596 10.612h-1.05a.335.335 0 0 1-.334-.315l-.616-10.047c.294-.16.598-.334.884-.51a.336.336 0 0 1 .52.26Z" opacity=".5" style="mix-blend-mode:multiply"></path>    <path stroke="#074DC5" stroke-linecap="round" stroke-linejoin="round" stroke-width=".781" d="M31.965 13.446a3.068 3.068 0 0 0-3.919 1.858" opacity=".5" style="mix-blend-mode:multiply"></path>    <path stroke="#9DBFFB" stroke-linecap="round" stroke-linejoin="round" stroke-width="1.116" d="M38.804 18.406h.001"></path>  </g>  <defs>    <clipPath id="a">      <path fill="#fff" d="M.5 0h48v48H.5z"></path>    </clipPath>  </defs></svg>


